<?xml version="1.0" encoding="UTF-8" standalone="no"?><svg xmlns="http://www.w3.org/2000/svg" xmlns:xlink="http://www.w3.org/1999/xlink" contentScriptType="application/ecmascript" contentStyleType="text/css" height="498px" preserveAspectRatio="none" style="width:509px;height:498px;" version="1.1" viewBox="0 0 509 498" width="509px" zoomAndPan="magnify"><defs><filter height="300%" id="f1undjojqk0ha8" width="300%" x="-1" y="-1"><feGaussianBlur result="blurOut" stdDeviation="2.0"/><feColorMatrix in="blurOut" result="blurOut2" type="matrix" values="0 0 0 0 0 0 0 0 0 0 0 0 0 0 0 0 0 0 .4 0"/><feOffset dx="4.0" dy="4.0" in="blurOut2" result="blurOut3"/><feBlend in="SourceGraphic" in2="blurOut3" mode="normal"/></filter></defs><g><text fill="#000000" font-family="sans-serif" font-size="18" lengthAdjust="spacingAndGlyphs" textLength="495" x="2" y="16.708">Robustness Diagram - Frontend Repository (Dashboard)</text><!--MD5=[8de9b5c870dbacd143e54be342e93782]
cluster Frontend Repo (React)--><polygon fill="#FFFFFF" filter="url(#f1undjojqk0ha8)" points="96,44.9531,280,44.9531,287,67.25,391,67.25,391,486.9531,96,486.9531,96,44.9531" style="stroke: #000000; stroke-width: 1.5;"/><line style="stroke: #000000; stroke-width: 1.5;" x1="96" x2="287" y1="67.25" y2="67.25"/><text fill="#000000" font-family="sans-serif" font-size="14" font-weight="bold" lengthAdjust="spacingAndGlyphs" textLength="178" x="100" y="59.9482">Frontend Repo (React)</text><!--MD5=[2db10bb0673a6664d4df720a46808e27]
entity UIBnd--><path d="M294.5,83.9531 L294.5,107.9531 M294.5,95.9531 L311.5,95.9531 " fill="none" filter="url(#f1undjojqk0ha8)" style="stroke: #A80036; stroke-width: 2.0;"/><ellipse cx="323.5" cy="95.9531" fill="#FEFECE" filter="url(#f1undjojqk0ha8)" rx="12" ry="12" style="stroke: #A80036; stroke-width: 2.0;"/><text fill="#000000" font-family="sans-serif" font-size="14" lengthAdjust="spacingAndGlyphs" textLength="119" x="255.5" y="124.9482">Web UI (Browser)</text><!--MD5=[6c28005e2b52014aaa1f38f0f391ee9a]
entity CloudClientBnd--><path d="M145.5,83.9531 L145.5,107.9531 M145.5,95.9531 L162.5,95.9531 " fill="none" filter="url(#f1undjojqk0ha8)" style="stroke: #A80036; stroke-width: 2.0;"/><ellipse cx="174.5" cy="95.9531" fill="#FEFECE" filter="url(#f1undjojqk0ha8)" rx="12" ry="12" style="stroke: #A80036; stroke-width: 2.0;"/><text fill="#000000" font-family="sans-serif" font-size="14" lengthAdjust="spacingAndGlyphs" textLength="108" x="112" y="124.9482">Cloud API Client</text><!--MD5=[a4d34582f370c3c1cf305d0907771e8b]
entity DashCtrl--><ellipse cx="196" cy="204.9531" fill="#FEFECE" filter="url(#f1undjojqk0ha8)" rx="12" ry="12" style="stroke: #A80036; stroke-width: 2.0;"/><polygon fill="#A80036" points="192,192.9531,198,187.9531,196,192.9531,198,197.9531,192,192.9531" style="stroke: #A80036; stroke-width: 1.0;"/><text fill="#000000" font-family="sans-serif" font-size="14" lengthAdjust="spacingAndGlyphs" textLength="147" x="122.5" y="233.9482">Dashboard Controller</text><!--MD5=[3988b6cf1f16c34d2b5cb8d269543949]
entity MapCtrl--><ellipse cx="258" cy="329.9531" fill="#FEFECE" filter="url(#f1undjojqk0ha8)" rx="12" ry="12" style="stroke: #A80036; stroke-width: 2.0;"/><polygon fill="#A80036" points="254,317.9531,260,312.9531,258,317.9531,260,322.9531,254,317.9531" style="stroke: #A80036; stroke-width: 1.0;"/><text fill="#000000" font-family="sans-serif" font-size="14" lengthAdjust="spacingAndGlyphs" textLength="98" x="209" y="358.9482">Map Renderer</text><!--MD5=[7c30acc6fff65df63103590886117ca7]
entity AppEnt--><ellipse cx="241" cy="438.9531" fill="#FEFECE" filter="url(#f1undjojqk0ha8)" rx="12" ry="12" style="stroke: #A80036; stroke-width: 2.0;"/><line style="stroke: #A80036; stroke-width: 2.0;" x1="229" x2="253" y1="452.9531" y2="452.9531"/><text fill="#000000" font-family="sans-serif" font-size="14" lengthAdjust="spacingAndGlyphs" textLength="224" x="129" y="467.9482">AppState (Active Alerts/Location)</text><!--MD5=[0c8ce9039b850ba71fafa1e60bdee540]
link UIBnd to DashCtrl--><path d="M289.18,128.1731 C269.22,146.1131 241.72,170.8431 221.77,188.7831 " fill="none" id="UIBnd-DashCtrl" style="stroke: #A80036; stroke-width: 1.0;"/><!--MD5=[47a5f9d2ea9628a3cd66eb575b66b3d9]
link UIBnd to MapCtrl--><path d="M319.54,128.1231 C325.32,163.3731 332.13,231.8831 310,283.9531 C305.21,295.2231 296.81,305.4231 288.15,313.8031 " fill="none" id="UIBnd-MapCtrl" style="stroke: #A80036; stroke-width: 1.0;"/><!--MD5=[2e86096c7fd44c6bb22c99ec7591db0c]
link CloudClientBnd to DashCtrl--><path d="M172.51,128.1731 C177.54,146.1131 184.47,170.8431 189.5,188.7831 " fill="none" id="CloudClientBnd-DashCtrl" style="stroke: #A80036; stroke-width: 1.0;"/><!--MD5=[948a05c39bf1b8f201a33915da67ca01]
link DashCtrl to AppEnt--><path d="M191.35,237.0031 C186.3,266.5331 180.39,319.0231 192,361.9531 C198.04,384.2831 211.65,406.7731 222.99,422.8531 " fill="none" id="DashCtrl-AppEnt" style="stroke: #A80036; stroke-width: 1.0;"/><!--MD5=[d757b1b9f8fb6b08d5022540b485d0b3]
link DashCtrl to MapCtrl--><path d="M197.94,237.0131 C199.84,251.1631 203.6,269.3131 211,283.9531 C216.5,294.8131 224.77,305.2031 232.85,313.8631 " fill="none" id="DashCtrl-MapCtrl" style="stroke: #A80036; stroke-width: 1.0;"/><text fill="#000000" font-family="sans-serif" font-size="13" lengthAdjust="spacingAndGlyphs" textLength="93" x="212" y="280.02">State Updates</text><!--MD5=[6d6d0354b8c92464aa37cc5fa429cc1c]
link MapCtrl to AppEnt--><path d="M254.31,362.1731 C251.46,380.1131 247.53,404.8431 244.68,422.7831 " fill="none" id="MapCtrl-AppEnt" style="stroke: #A80036; stroke-width: 1.0;"/><!--MD5=[d20d83498cae63a0f149452a98f4753a]
@startuml frontend_bce
title Robustness Diagram - Frontend Repository (Dashboard)

skinparam backgroundColor white
skinparam componentStyle uml2

package "Frontend Repo (React)" {
    boundary "Web UI (Browser)" as UIBnd
    boundary "Cloud API Client" as CloudClientBnd
    
    control "Dashboard Controller" as DashCtrl
    control "Map Renderer" as MapCtrl
    
    entity "AppState (Active Alerts/Location)" as AppEnt
    
    UIBnd - - DashCtrl
    UIBnd - - MapCtrl
    
    CloudClientBnd - - DashCtrl
    DashCtrl - - AppEnt
    
    DashCtrl - - MapCtrl : State Updates
    MapCtrl - - AppEnt
}
@enduml

PlantUML version 1.2020.02(Sun Mar 01 10:22:07 UTC 2020)
(GPL source distribution)
Java Runtime: OpenJDK Runtime Environment
JVM: OpenJDK 64-Bit Server VM
Java Version: 17.0.19+10
Operating System: Linux
Default Encoding: UTF-8
Language: en
Country: null
--></g></svg>